<svg class="border shadow-md" viewBox="0 0 466.4 466.4" style="width: 466.4px; height: 466.4px;" xmlns="http://www.w3.org/2000/svg" preserveAspectRatio="none"><rect class="bg" id="bg" x="0" y="0" width="466.4" height="466.4" fill="#ffffff"/><line opacity="1" x1="0" y1="-37" x2="56" y2="19" stroke-linecap="round" stroke="#F7B801" stroke-width="10"/><line opacity="1" x1="0" y1="122.64444444444445" x2="70" y2="192.64444444444445" stroke-linecap="round" stroke="#FF5D00" stroke-width="12"/><line opacity="1" x1="0" y1="332.64444444444445" x2="72" y2="404.64444444444445" stroke-linecap="round" stroke="#000000" stroke-width="19"/><line opacity="1" x1="18.656" y1="94" x2="69.656" y2="145" stroke-linecap="round" stroke="#F20000" stroke-width="12"/><line opacity="1" x1="18.656" y1="196.82222222222222" x2="68.656" y2="246.82222222222222" stroke-linecap="round" stroke="#F20000" stroke-width="10"/><line opacity="1" x1="18.656" y1="298.64444444444445" x2="67.656" y2="347.64444444444445" stroke-linecap="round" stroke="#0514F2" stroke-width="23"/><line opacity="1" x1="18.656" y1="399.4666666666667" x2="65.656" y2="446.4666666666667" stroke-linecap="round" stroke="#F20000" stroke-width="10"/><line opacity="1" x1="18.656" y1="498.2888888888889" x2="56.656" y2="536.2888888888889" stroke-linecap="round" stroke="#F7B801" stroke-width="13"/><line opacity="1" x1="18.656" y1="612.2888888888889" x2="44.56711111111111" y2="638.2" stroke-linecap="round" stroke="#F7B801" stroke-width="10"/><line opacity="1" x1="37.312" y1="-55" x2="89.13422222222222" y2="-3.177777777777777" stroke-linecap="round" stroke="#F20000" stroke-width="29"/><line opacity="1" x1="37.312" y1="100.46666666666667" x2="89.13422222222222" y2="152.2888888888889" stroke-linecap="round" stroke="#F20000" stroke-width="20"/><line opacity="1" x1="37.312" y1="255.93333333333334" x2="89.13422222222222" y2="307.7555555555556" stroke-linecap="round" stroke="#F20000" stroke-width="10"/><line opacity="1" x1="55.967999999999996" y1="-20" x2="119.96799999999999" y2="44" stroke-linecap="round" stroke="#FF5D00" stroke-width="18"/><line opacity="1" x1="55.967999999999996" y1="121.73333333333335" x2="94.83466666666666" y2="160.60000000000002" stroke-linecap="round" stroke="#000000" stroke-width="26"/><line opacity="1" x1="55.967999999999996" y1="238.33333333333334" x2="94.83466666666666" y2="277.2" stroke-linecap="round" stroke="#0514F2" stroke-width="10"/><line opacity="1" x1="55.967999999999996" y1="354.93333333333334" x2="112.96799999999999" y2="411.93333333333334" stroke-linecap="round" stroke="#F20000" stroke-width="18"/><line opacity="1" x1="74.624" y1="16" x2="174.624" y2="116" stroke-linecap="round" stroke="#F7B801" stroke-width="10"/><line opacity="1" x1="74.624" y1="219.64444444444445" x2="145.624" y2="290.64444444444445" stroke-linecap="round" stroke="#000000" stroke-width="10"/><line opacity="1" x1="74.624" y1="432.64444444444445" x2="126.44622222222222" y2="484.4666666666667" stroke-linecap="round" stroke="#000000" stroke-width="22"/><line opacity="1" x1="93.28" y1="-44" x2="140.28" y2="3" stroke-linecap="round" stroke="#F20000" stroke-width="10"/><line opacity="1" x1="93.28" y1="65.18666666666667" x2="124.37333333333333" y2="96.28" stroke-linecap="round" stroke="#F7B801" stroke-width="10"/><line opacity="1" x1="93.28" y1="158.46666666666664" x2="126.28" y2="191.46666666666664" stroke-linecap="round" stroke="#000000" stroke-width="30"/><line opacity="1" x1="93.28" y1="253.6533333333333" x2="146.28" y2="306.6533333333333" stroke-linecap="round" stroke="#F7B801" stroke-width="18"/><line opacity="1" x1="93.28" y1="384.6533333333333" x2="138.28" y2="429.6533333333333" stroke-linecap="round" stroke="#000000" stroke-width="11"/><line opacity="1" x1="111.93599999999999" y1="-16" x2="176.43599999999998" y2="48.5" stroke-linecap="round" stroke="#F20000" stroke-width="10"/><line opacity="1" x1="111.93599999999999" y1="177.5" x2="195.93599999999998" y2="261.5" stroke-linecap="round" stroke="#FF5D00" stroke-width="28"/><line opacity="1" x1="111.93599999999999" y1="365.14444444444445" x2="178.93599999999998" y2="432.14444444444445" stroke-linecap="round" stroke="#F7B801" stroke-width="23"/><line opacity="1" x1="130.59199999999998" y1="44" x2="181.59199999999998" y2="95" stroke-linecap="round" stroke="#0514F2" stroke-width="10"/><line opacity="1" x1="130.59199999999998" y1="157.18666666666667" x2="163.09199999999998" y2="189.68666666666667" stroke-linecap="round" stroke="#FF5D00" stroke-width="10"/><line opacity="1" x1="130.59199999999998" y1="254.68666666666667" x2="189.59199999999998" y2="313.68666666666667" stroke-linecap="round" stroke="#0514F2" stroke-width="10"/><line opacity="1" x1="130.59199999999998" y1="375.87333333333333" x2="172.59199999999998" y2="417.87333333333333" stroke-linecap="round" stroke="#FF5D00" stroke-width="23"/><line opacity="1" x1="130.59199999999998" y1="501.87333333333333" x2="169.59199999999998" y2="540.8733333333333" stroke-linecap="round" stroke="#000000" stroke-width="22"/><line opacity="1" x1="149.248" y1="93" x2="246.248" y2="190" stroke-linecap="round" stroke="#FF5D00" stroke-width="10"/><line opacity="1" x1="149.248" y1="322" x2="246.248" y2="419" stroke-linecap="round" stroke="#F20000" stroke-width="31"/><line opacity="1" x1="149.248" y1="522.6444444444444" x2="202.248" y2="575.6444444444444" stroke-linecap="round" stroke="#000000" stroke-width="22"/><line opacity="1" x1="167.904" y1="63" x2="219.72622222222222" y2="114.82222222222222" stroke-linecap="round" stroke="#F7B801" stroke-width="17"/><line opacity="1" x1="167.904" y1="218.46666666666667" x2="242.404" y2="292.9666666666667" stroke-linecap="round" stroke="#000000" stroke-width="10"/><line opacity="1" x1="167.904" y1="441.9666666666667" x2="219.72622222222222" y2="493.7888888888889" stroke-linecap="round" stroke="#FF5D00" stroke-width="12"/><line opacity="1" x1="186.56" y1="112" x2="261.56" y2="187" stroke-linecap="round" stroke="#F20000" stroke-width="28"/><line opacity="1" x1="186.56" y1="285" x2="233.56" y2="332" stroke-linecap="round" stroke="#0514F2" stroke-width="10"/><line opacity="1" x1="186.56" y1="409.73333333333335" x2="286.56" y2="509.73333333333335" stroke-linecap="round" stroke="#F7B801" stroke-width="12"/><line opacity="1" x1="186.56" y1="619.7333333333333" x2="225.42666666666668" y2="658.6" stroke-linecap="round" stroke="#F7B801" stroke-width="23"/><line opacity="1" x1="205.21599999999998" y1="80" x2="257.0382222222222" y2="131.82222222222222" stroke-linecap="round" stroke="#F7B801" stroke-width="31"/><line opacity="1" x1="205.21599999999998" y1="235.46666666666667" x2="262.216" y2="292.4666666666667" stroke-linecap="round" stroke="#000000" stroke-width="10"/><line opacity="1" x1="205.21599999999998" y1="396.1111111111111" x2="303.216" y2="494.1111111111111" stroke-linecap="round" stroke="#0514F2" stroke-width="12"/><line opacity="1" x1="223.87199999999999" y1="-72" x2="292.87199999999996" y2="-3" stroke-linecap="round" stroke="#0514F2" stroke-width="12"/><line opacity="1" x1="223.87199999999999" y1="135" x2="275.6942222222222" y2="186.82222222222222" stroke-linecap="round" stroke="#000000" stroke-width="27"/><line opacity="1" x1="223.87199999999999" y1="290.4666666666667" x2="298.87199999999996" y2="365.4666666666667" stroke-linecap="round" stroke="#000000" stroke-width="14"/><line opacity="1" x1="242.528" y1="85" x2="297.528" y2="140" stroke-linecap="round" stroke="#F7B801" stroke-width="19"/><line opacity="1" x1="242.528" y1="243.64444444444445" x2="302.028" y2="303.14444444444445" stroke-linecap="round" stroke="#FF5D00" stroke-width="24"/><line opacity="1" x1="242.528" y1="422.14444444444445" x2="296.528" y2="476.14444444444445" stroke-linecap="round" stroke="#F7B801" stroke-width="10"/><line opacity="1" x1="261.18399999999997" y1="92" x2="289.18399999999997" y2="120" stroke-linecap="round" stroke="#FF5D00" stroke-width="18"/><line opacity="1" x1="261.18399999999997" y1="171.82222222222222" x2="292.68399999999997" y2="203.32222222222222" stroke-linecap="round" stroke="#F7B801" stroke-width="10"/><line opacity="1" x1="261.18399999999997" y1="266.3222222222222" x2="287.09511111111107" y2="292.2333333333333" stroke-linecap="round" stroke="#FF5D00" stroke-width="16"/><line opacity="1" x1="261.18399999999997" y1="344.05555555555554" x2="287.09511111111107" y2="369.96666666666664" stroke-linecap="round" stroke="#F7B801" stroke-width="31"/><line opacity="1" x1="261.18399999999997" y1="421.7888888888889" x2="287.18399999999997" y2="447.7888888888889" stroke-linecap="round" stroke="#000000" stroke-width="10"/><line opacity="1" x1="261.18399999999997" y1="499.6111111111111" x2="289.18399999999997" y2="527.6111111111111" stroke-linecap="round" stroke="#F20000" stroke-width="17"/><line opacity="1" x1="279.84" y1="-120" x2="331.6622222222222" y2="-68.17777777777778" stroke-linecap="round" stroke="#F7B801" stroke-width="10"/><line opacity="1" x1="279.84" y1="35.46666666666667" x2="365.84" y2="121.46666666666667" stroke-linecap="round" stroke="#F20000" stroke-width="12"/><line opacity="1" x1="279.84" y1="225.11111111111111" x2="331.6622222222222" y2="276.93333333333334" stroke-linecap="round" stroke="#000000" stroke-width="27"/><line opacity="1" x1="298.496" y1="-16" x2="368.496" y2="54" stroke-linecap="round" stroke="#0514F2" stroke-width="10"/><line opacity="1" x1="298.496" y1="131.73333333333335" x2="351.496" y2="184.73333333333335" stroke-linecap="round" stroke="#000000" stroke-width="11"/><line opacity="1" x1="298.496" y1="262.4666666666667" x2="349.496" y2="313.4666666666667" stroke-linecap="round" stroke="#F20000" stroke-width="10"/><line opacity="1" x1="298.496" y1="391.20000000000005" x2="337.36266666666666" y2="430.0666666666667" stroke-linecap="round" stroke="#F7B801" stroke-width="15"/><line opacity="1" x1="317.152" y1="16" x2="372.152" y2="71" stroke-linecap="round" stroke="#0514F2" stroke-width="30"/><line opacity="1" x1="317.152" y1="148.73333333333335" x2="383.152" y2="214.73333333333335" stroke-linecap="round" stroke="#F7B801" stroke-width="12"/><line opacity="1" x1="317.152" y1="292.4666666666667" x2="364.652" y2="339.9666666666667" stroke-linecap="round" stroke="#FF5D00" stroke-width="19"/><line opacity="1" x1="317.152" y1="434.9666666666667" x2="366.152" y2="483.9666666666667" stroke-linecap="round" stroke="#F20000" stroke-width="16"/><line opacity="1" x1="335.808" y1="42" x2="374.67466666666667" y2="80.86666666666667" stroke-linecap="round" stroke="#FF5D00" stroke-width="10"/><line opacity="1" x1="335.808" y1="158.6" x2="374.67466666666667" y2="197.46666666666667" stroke-linecap="round" stroke="#0514F2" stroke-width="10"/><line opacity="1" x1="335.808" y1="275.2" x2="376.308" y2="315.7" stroke-linecap="round" stroke="#FF5D00" stroke-width="25"/><line opacity="1" x1="335.808" y1="396.7" x2="377.808" y2="438.7" stroke-linecap="round" stroke="#FF5D00" stroke-width="19"/><line opacity="1" x1="354.464" y1="-80" x2="413.464" y2="-21" stroke-linecap="round" stroke="#0514F2" stroke-width="16"/><line opacity="1" x1="354.464" y1="71" x2="398.464" y2="115" stroke-linecap="round" stroke="#0514F2" stroke-width="21"/><line opacity="1" x1="354.464" y1="177.18666666666667" x2="408.464" y2="231.18666666666667" stroke-linecap="round" stroke="#0514F2" stroke-width="10"/><line opacity="1" x1="354.464" y1="293.37333333333333" x2="385.5573333333333" y2="324.46666666666664" stroke-linecap="round" stroke="#0514F2" stroke-width="10"/><line opacity="1" x1="354.464" y1="386.6533333333333" x2="400.464" y2="432.6533333333333" stroke-linecap="round" stroke="#000000" stroke-width="24"/><line opacity="1" x1="373.12" y1="-21" x2="418.12" y2="24" stroke-linecap="round" stroke="#F7B801" stroke-width="10"/><line opacity="1" x1="373.12" y1="74" x2="404.12" y2="105" stroke-linecap="round" stroke="#F7B801" stroke-width="10"/><line opacity="1" x1="373.12" y1="167" x2="395.32952380952383" y2="189.2095238095238" stroke-linecap="round" stroke="#FF5D00" stroke-width="10"/><line opacity="1" x1="373.12" y1="233.62857142857143" x2="395.32952380952383" y2="255.83809523809524" stroke-linecap="round" stroke="#F7B801" stroke-width="14"/><line opacity="1" x1="373.12" y1="300.25714285714287" x2="395.32952380952383" y2="322.4666666666667" stroke-linecap="round" stroke="#0514F2" stroke-width="12"/><line opacity="1" x1="373.12" y1="366.8857142857143" x2="408.12" y2="401.8857142857143" stroke-linecap="round" stroke="#F7B801" stroke-width="25"/><line opacity="1" x1="373.12" y1="446.3047619047619" x2="398.12" y2="471.3047619047619" stroke-linecap="round" stroke="#F7B801" stroke-width="16"/><line opacity="1" x1="391.77599999999995" y1="-91" x2="449.27599999999995" y2="-33.5" stroke-linecap="round" stroke="#000000" stroke-width="10"/><line opacity="1" x1="391.77599999999995" y1="81.5" x2="449.77599999999995" y2="139.5" stroke-linecap="round" stroke="#FF5D00" stroke-width="13"/><line opacity="1" x1="391.77599999999995" y1="243.14444444444445" x2="443.59822222222215" y2="294.9666666666667" stroke-linecap="round" stroke="#0514F2" stroke-width="10"/><line opacity="1" x1="410.43199999999996" y1="16" x2="478.43199999999996" y2="84" stroke-linecap="round" stroke="#F7B801" stroke-width="28"/><line opacity="1" x1="410.43199999999996" y1="187.64444444444445" x2="491.43199999999996" y2="268.64444444444445" stroke-linecap="round" stroke="#FF5D00" stroke-width="31"/><line opacity="1" x1="410.43199999999996" y1="372.2888888888889" x2="462.2542222222222" y2="424.1111111111111" stroke-linecap="round" stroke="#FF5D00" stroke-width="25"/><line opacity="1" x1="429.08799999999997" y1="31" x2="530.088" y2="132" stroke-linecap="round" stroke="#000000" stroke-width="10"/><line opacity="1" x1="429.08799999999997" y1="235.64444444444445" x2="480.91022222222216" y2="287.4666666666667" stroke-linecap="round" stroke="#000000" stroke-width="21"/><line opacity="1" x1="429.08799999999997" y1="391.1111111111111" x2="515.088" y2="477.1111111111111" stroke-linecap="round" stroke="#0514F2" stroke-width="18"/><line opacity="1" x1="447.74399999999997" y1="90" x2="499.5662222222222" y2="141.82222222222222" stroke-linecap="round" stroke="#F20000" stroke-width="12"/><line opacity="1" x1="447.74399999999997" y1="245.46666666666667" x2="499.5662222222222" y2="297.2888888888889" stroke-linecap="round" stroke="#F7B801" stroke-width="10"/><line opacity="1" x1="447.74399999999997" y1="400.93333333333334" x2="524.7439999999999" y2="477.93333333333334" stroke-linecap="round" stroke="#F7B801" stroke-width="10"/></svg>