<svg class="border shadow-md" viewBox="0 0 466.4 466.4" xmlns="http://www.w3.org/2000/svg" preserveAspectRatio="none" style="width: 466.4px; height: 466.4px;"><rect class="bg" id="bg" x="0" y="0" width="466.4" height="466.4" fill="#ffffff"/><path d="M -10 -116.6 S -233.20 -174.90&#10;            0.00 -116.60 233.20 -174.90&#10;            466.40 -116.60 699.60 -174.90&#10;            932.80 -116.60 V 466.40 H 0 V -116.60 Z" fill="#000000"/><path d="M -10 0 S -233.20 -58.30&#10;            0.00 0.00 233.20 -63.00&#10;            466.40 0.00 699.60 -58.30&#10;            932.80 0.00 V 466.40 H 0 V 0.00 Z" fill="#080418"/><path d="M -10 116.6 S -316.00 52.60&#10;            0.00 116.60 233.20 14.60&#10;            466.40 116.60 699.60 53.60&#10;            932.80 116.60 V 466.40 H 0 V 116.60 Z" fill="#100830"/><path d="M -10 233.2 S -233.20 152.20&#10;            0.00 233.20 223.40 174.90&#10;            466.40 233.20 699.60 174.90&#10;            932.80 233.20 V 466.40 H 0 V 233.20 Z" fill="#180c48"/><path d="M -10 349.79999999999995 S -233.20 256.80&#10;            0.00 349.80 233.20 291.50&#10;            466.40 349.80 563.80 261.80&#10;            932.80 349.80 V 466.40 H 0 V 349.80 Z" fill="#201060"/></svg>